<?xml version="1.0" encoding="UTF-8" standalone="no"?>
<svg
   stroke="currentColor"
   fill="none"
   stroke-width="0"
   viewBox="0 0 15 15"
   height="200px"
   width="200px"
   version="1.1"
   id="svg1"
   sodipodi:docname="icon.svg"
   inkscape:version="1.4.2 (f4327f4, 2025-05-13)"
   xmlns:inkscape="http://www.inkscape.org/namespaces/inkscape"
   xmlns:sodipodi="http://sodipodi.sourceforge.net/DTD/sodipodi-0.dtd"
   xmlns:xlink="http://www.w3.org/1999/xlink"
   xmlns="http://www.w3.org/2000/svg"
   xmlns:svg="http://www.w3.org/2000/svg">
  <defs
     id="defs1">
    <linearGradient
       id="linearGradient1"
       inkscape:collect="always">
      <stop
         style="stop-color:#020900;stop-opacity:1;"
         offset="0"
         id="stop1" />
      <stop
         style="stop-color:#6eff49;stop-opacity:1;"
         offset="1"
         id="stop2" />
    </linearGradient>
    <linearGradient
       inkscape:collect="always"
       xlink:href="#linearGradient1"
       id="linearGradient2"
       x1="5.2768693"
       y1="13.607988"
       x2="9.7231302"
       y2="1.3919861"
       gradientUnits="userSpaceOnUse" />
  </defs>
  <sodipodi:namedview
     id="namedview1"
     pagecolor="#ffffff"
     bordercolor="#666666"
     borderopacity="1.0"
     inkscape:showpageshadow="2"
     inkscape:pageopacity="0.0"
     inkscape:pagecheckerboard="0"
     inkscape:deskcolor="#d1d1d1"
     inkscape:zoom="4.035"
     inkscape:cx="99.876084"
     inkscape:cy="100"
     inkscape:window-width="1920"
     inkscape:window-height="1009"
     inkscape:window-x="1358"
     inkscape:window-y="58"
     inkscape:window-maximized="1"
     inkscape:current-layer="svg1" />
  <path
     fill-rule="evenodd"
     clip-rule="evenodd"
     d="M7.28856 0.796908C7.42258 0.734364 7.57742 0.734364 7.71144 0.796908L13.7114 3.59691C13.8875 3.67906 14 3.85574 14 4.05V10.95C14 11.1443 13.8875 11.3209 13.7114 11.4031L7.71144 14.2031C7.57742 14.2656 7.42258 14.2656 7.28856 14.2031L1.28856 11.4031C1.11252 11.3209 1 11.1443 1 10.95V4.05C1 3.85574 1.11252 3.67906 1.28856 3.59691L7.28856 0.796908ZM2 4.80578L7 6.93078V12.9649L2 10.6316V4.80578ZM8 12.9649L13 10.6316V4.80578L8 6.93078V12.9649ZM7.5 6.05672L12.2719 4.02866L7.5 1.80176L2.72809 4.02866L7.5 6.05672Z"
     fill="currentColor"
     id="path1"
     style="fill:url(#linearGradient2);fill-opacity:1;stroke-dasharray:none;stroke-width:0.36000004;stroke:#030303;stroke-opacity:1" />
</svg>
